<svg width="24" height="24" viewBox="0 0 24 24" fill="none" xmlns="http://www.w3.org/2000/svg">
<rect width="24" height="24" fill="#BF9D77"/>
<path d="M12.888 8.61275C13.6073 8.7914 14.2524 9.1987 14.7302 9.77585C15.2079 10.353 15.4936 11.0702 15.5461 11.8238C15.5985 12.5775 15.415 13.3286 15.022 13.9689C14.629 14.6092 14.0468 15.1055 13.3594 15.3861M13.3594 15.3861L12.8676 11.4559L13.4095 10.8137H12.8528L12.8918 8.61279V8.53135H13.3038V8.24534L11.962 7.24903L10.6202 8.24534V8.53324H11.0322L11.0323 8.6696M13.3594 15.3861L13.6879 18C15.07 17.5865 16.2602 16.6794 17.0412 15.4443C17.8222 14.2093 18.1419 12.7287 17.9418 11.273C17.7418 9.81736 17.0353 8.48369 15.9515 7.51561C14.8678 6.54752 13.4789 6.00962 12.0387 6.00013C10.5985 5.99064 9.20301 6.5102 8.10707 7.46393C7.01113 8.41765 6.28789 9.7419 6.06944 11.1948C5.85098 12.6477 6.15188 14.1324 6.91719 15.3776C7.68251 16.6228 8.86115 17.5456 10.2379 17.9773L10.5757 15.3028L11.0582 11.4502L10.5163 10.8081H11.073L11.0323 8.6696M11.0323 8.6696C10.3604 8.88274 9.76716 9.29791 9.33025 9.86081C8.89334 10.4237 8.63309 11.1081 8.58356 11.8244C8.53403 12.5408 8.69752 13.2557 9.05264 13.8756C9.40777 14.4956 9.93798 14.9917 10.5739 15.299" stroke="white" stroke-linecap="round" stroke-linejoin="round"/>
</svg>
