<svg width="24" height="24" viewBox="0 0 24 24" fill="none" xmlns="http://www.w3.org/2000/svg">
<rect width="24" height="24" fill="#BF9D77"/>
<path d="M13.4987 12.528H12.6797C11.3928 12.528 10.1449 11.7601 10.1449 9.83991C10.1449 7.84006 11.3149 7.02401 12.5042 7.02401H13.4987V12.528ZM14.7855 6H12.5629C10.3786 6 8.52674 7.36023 8.52674 10.0001C8.52674 11.5841 9.4236 12.7521 11.0226 13.3278L8.0391 17.7439C7.94147 17.8879 8.0391 18 8.19489 18H9.57939C9.69623 18 9.77466 17.968 9.8136 17.8879L12.5239 13.552H13.4987V17.8879C13.4987 17.9361 13.5573 18 13.6352 18H14.8442C14.9611 18 15 17.9518 15 17.8722V6.1598C15 6.04816 14.9221 6 14.7855 6Z" fill="white"/>
</svg>
