<svg width="24" height="24" viewBox="0 0 24 24" fill="none" xmlns="http://www.w3.org/2000/svg">
<rect width="24" height="24" fill="#BF9D77"/>
<path d="M17.8792 15.2808C17.8792 15.2329 17.8275 15.2329 17.8275 15.1849C17.6206 14.8014 17.1551 14.3219 16.5344 13.7945C16.2241 13.5548 16.0689 13.363 15.9655 13.2671C15.8103 13.0753 15.8103 12.9315 15.862 12.7397C15.9137 12.5959 16.1206 12.3562 16.4827 11.9247C16.6896 11.6849 16.793 11.5411 16.9482 11.3973C17.7241 10.4384 18.0861 9.81506 17.9827 9.52739L17.931 9.47945C17.8793 9.43151 17.8275 9.38356 17.7241 9.38356C17.6206 9.33562 17.4655 9.33562 17.3103 9.38356H15.3448C15.2931 9.38356 15.293 9.38356 15.1896 9.38356C15.1379 9.38356 15.0862 9.38356 15.0862 9.38356H15.0344H14.9827L14.931 9.4315C14.8793 9.47945 14.8793 9.47945 14.8793 9.52739C14.6724 10.0548 14.4137 10.4863 14.1551 10.9658C14 11.2055 13.8448 11.4452 13.6896 11.637C13.5344 11.8288 13.431 11.9726 13.3275 12.0685C13.2241 12.1644 13.1206 12.2123 13.0689 12.3082C13.0172 12.3562 12.9138 12.4041 12.9138 12.3562C12.862 12.3562 12.8103 12.3562 12.8103 12.3082C12.7586 12.2603 12.7069 12.2123 12.6551 12.1644C12.6034 12.1164 12.6034 12.0205 12.5517 11.9247C12.5517 11.8288 12.5517 11.7329 12.5517 11.6849C12.5517 11.637 12.5517 11.4932 12.5517 11.3973C12.5517 11.2534 12.5517 11.1575 12.5517 11.1096C12.5517 10.9658 12.5517 10.774 12.5517 10.5822C12.5517 10.3904 12.5517 10.2466 12.5517 10.1507C12.5517 10.0548 12.5517 9.91096 12.5517 9.81507C12.5517 9.67123 12.5517 9.57534 12.5517 9.52739C12.5517 9.47945 12.5 9.38356 12.5 9.33562C12.4482 9.28767 12.3965 9.23972 12.3448 9.19178C12.2931 9.14383 12.1896 9.14383 12.1379 9.09589C11.8793 9.04794 11.5689 9 11.2069 9C10.3793 9 9.81033 9.04795 9.60343 9.14384C9.49998 9.19178 9.39653 9.23972 9.34481 9.33562C9.24136 9.43151 9.24136 9.47945 9.29308 9.47945C9.5517 9.5274 9.7586 9.62328 9.86205 9.76712L9.91378 9.86302C9.9655 9.91096 9.96549 10.0068 10.0172 10.1507C10.0689 10.2945 10.0689 10.4384 10.0689 10.6301C10.0689 10.9178 10.0689 11.2055 10.0689 11.3973C10.0689 11.637 10.0172 11.7808 10.0172 11.9247C10.0172 12.0685 9.9655 12.1644 9.91378 12.2123C9.86205 12.3082 9.86205 12.3562 9.81032 12.3562C9.81032 12.3562 9.81032 12.4041 9.75859 12.4041C9.70687 12.4041 9.65515 12.4521 9.5517 12.4521C9.49998 12.4521 9.39653 12.4041 9.34481 12.3562C9.24136 12.3082 9.13791 12.2123 9.08619 12.1164C8.98274 12.0205 8.87929 11.8767 8.77584 11.6849C8.6724 11.4931 8.51722 11.3014 8.41377 11.0137L8.31033 10.8219C8.25861 10.726 8.15516 10.5342 8.05171 10.2945C7.94827 10.0548 7.84481 9.86302 7.74137 9.62329C7.68964 9.5274 7.63793 9.47945 7.5862 9.4315H7.53447C7.53447 9.4315 7.48274 9.38356 7.43102 9.38356C7.3793 9.38356 7.32758 9.33562 7.27586 9.33562H5.41379C5.2069 9.33562 5.10345 9.38356 5.05173 9.4315L5 9.47945C5 9.47945 5 9.5274 5 9.57534C5 9.62329 5 9.67123 5.05173 9.76712C5.31035 10.3425 5.62069 10.9178 5.93103 11.4932C6.24137 12.0205 6.55172 12.5 6.75862 12.8356C7.01724 13.1712 7.22413 13.5069 7.48275 13.7945C7.74137 14.0822 7.89654 14.274 7.94826 14.3699C8.05171 14.4658 8.10343 14.5137 8.15515 14.5616L8.31033 14.7055C8.41378 14.8014 8.56895 14.9452 8.77584 15.089C8.98274 15.2329 9.24136 15.3767 9.49998 15.5205C9.75859 15.6644 10.0689 15.7603 10.3793 15.8562C10.7414 15.9521 11.0517 16 11.362 15.9521H12.1379C12.2931 15.9521 12.3965 15.9041 12.5 15.8082L12.5517 15.7603C12.5517 15.7123 12.6034 15.7123 12.6034 15.6644C12.6034 15.6164 12.6034 15.5685 12.6034 15.4726C12.6034 15.2808 12.6034 15.137 12.6551 14.9932C12.7069 14.8493 12.7069 14.7534 12.7586 14.6575C12.8103 14.5616 12.862 14.5137 12.9138 14.4658C12.9655 14.4178 13.0172 14.3699 13.0172 14.3699H13.0689C13.1724 14.3219 13.3275 14.3699 13.431 14.4658C13.5862 14.5616 13.7413 14.7055 13.8448 14.8493C13.9482 14.9932 14.1034 15.137 14.3103 15.3288C14.5172 15.5206 14.6724 15.6644 14.7758 15.7123L14.931 15.8082C15.0344 15.8562 15.1379 15.9041 15.2931 15.9521C15.4482 16 15.5517 16 15.6551 16L17.4137 15.9521C17.5689 15.9521 17.7241 15.9041 17.8275 15.8562C17.931 15.8082 17.9827 15.7603 17.9827 15.6644C17.9827 15.6164 17.9827 15.5206 17.9827 15.4726C17.8792 15.3767 17.8792 15.3288 17.8792 15.2808Z" fill="white"/>
</svg>
