<svg width="270" height="70" viewBox="0 0 270 70" fill="none" xmlns="http://www.w3.org/2000/svg">
<path fill-rule="evenodd" clip-rule="evenodd" d="M14.5495 28.4917L15.0379 29.4709C15.2309 29.4485 15.2363 29.4387 16.0449 27.6526C16.2437 27.2137 16.523 26.6047 16.6658 26.2993C17.1076 25.3546 17.4577 24.5687 17.4811 24.4695C17.4935 24.4173 17.4458 24.365 17.3753 24.3533C17.3048 24.3415 17.2301 24.3149 17.2092 24.2941C17.1768 24.2617 17.3032 23.9119 17.538 23.3846C17.7966 22.8038 18.0257 22.2399 18.0257 22.1843C18.0257 22.1477 18.0665 22.0839 18.1164 22.0426C18.1863 21.9848 18.2731 22.0586 18.4944 22.3637C18.6523 22.5817 19.2785 23.4471 19.886 24.2868C22.5178 27.9252 22.9811 28.5547 23.0256 28.5536C23.0515 28.5529 23.3334 28.1703 23.6521 27.7034C23.9708 27.2366 24.5045 26.4642 24.8382 25.9871C25.4305 25.1403 25.74 24.6971 26.68 23.3499C26.933 22.9873 27.2858 22.4773 27.4641 22.2165C27.6423 21.9557 27.8118 21.7684 27.8408 21.8001C27.8697 21.8319 28.0413 22.2794 28.2221 22.7947C28.6413 23.9893 28.7094 24.1635 28.6509 24.2356C28.6362 24.2536 28.6135 24.2653 28.5865 24.285C28.5212 24.3326 28.4679 24.3938 28.4679 24.4211C28.4679 24.4483 28.8595 25.2679 29.3381 26.2423C29.8167 27.2167 30.2083 28.0419 30.2083 28.0762C30.2083 28.1104 30.1143 28.1384 29.9994 28.1384C29.8846 28.1384 29.7906 28.1653 29.7906 28.1982C29.7906 28.2311 30.4182 29.3006 31.1853 30.5751C32.267 32.372 32.5498 32.7898 32.4986 33.1619C32.4765 33.3224 32.3923 33.4745 32.2833 33.725C31.6148 35.2611 30.6132 36.3964 29.4087 36.9834C28.5459 37.4039 27.9633 37.5308 27.0636 37.494C26.4187 37.4676 26.2986 37.441 25.8983 37.2364C24.719 36.6334 23.9076 35.3516 23.383 33.2627C23.3043 32.9494 23.2957 32.9413 23.1105 33.0057L22.9192 33.0722L23.1123 33.8149C23.3504 34.7313 23.4422 34.9867 23.7567 35.6094C24.1904 36.468 24.8439 37.1836 25.5973 37.6252C26.3246 38.0515 27.5591 38.1743 28.5723 37.9212C29.8895 37.5921 31.0821 36.8118 31.8433 35.7809C32.1755 35.3311 32.7228 34.3511 32.817 34.0373C32.8457 33.9419 32.9104 33.7701 32.9608 33.6556C33.275 32.9426 33.6051 31.0826 33.6628 29.6999C33.6956 28.9113 33.6752 28.5388 33.5542 27.722C33.5049 27.3885 33.4715 27.1612 33.4315 26.935C33.3406 26.4214 33.2155 25.9138 32.7908 24.1827C32.3784 22.5016 32.3086 22.1612 32.132 20.9706C32.0589 20.4776 32.0583 20.2486 32.1287 19.774C32.3013 18.61 32.3794 16.4587 32.2999 15.0568C32.2209 13.6632 32.219 13.6461 32.0156 12.5546C31.7527 11.1431 31.3485 9.8506 30.8016 8.67207C30.6599 8.36672 30.5159 8.05442 30.4817 7.97808C30.4475 7.90174 30.3415 7.71437 30.2461 7.56169C30.1507 7.40901 30.0207 7.19041 29.9572 7.0759C29.8937 6.96139 29.6736 6.62321 29.4681 6.32431C29.2626 6.02548 29.0944 5.77065 29.0944 5.75809C29.0944 5.64413 30.9751 6.33757 31.9138 6.79761C33.469 7.55968 34.592 8.37005 36.0577 9.78765L36.6512 10.3617L37.1223 9.942C37.3813 9.71111 37.6046 9.53393 37.6184 9.54823C37.9058 9.84616 39.6063 14.2069 39.6063 14.6459C39.6063 14.8107 39.6881 14.7637 40.2903 14.2524C40.6091 13.9818 40.8806 13.7709 40.8936 13.7839C40.9066 13.797 40.9796 14.0574 41.0559 14.3628C41.3266 15.4459 41.3815 16.0923 41.3815 18.197C41.3815 19.3135 41.3855 20.227 41.3904 20.227C41.4307 20.2269 42.2713 19.8689 42.613 19.7063C42.7159 19.6573 42.8132 19.6302 42.8292 19.6461C42.8625 19.6793 42.8378 20.5937 42.7723 21.7537C42.7268 22.5602 42.4544 24.3167 42.1723 25.6223C42.0878 26.0133 42.0332 26.3476 42.0508 26.3651C42.0684 26.3827 42.4044 26.3325 42.7974 26.2535C43.1905 26.1746 43.5258 26.1238 43.5427 26.1406C43.5919 26.1896 43.1814 27.2674 42.7552 28.2078C42.3725 29.0523 41.7819 30.1795 41.428 30.7409C41.3317 30.8935 41.1751 31.1434 41.08 31.2961C40.985 31.4487 40.8495 31.6582 40.7789 31.7617C40.7083 31.8651 40.6504 31.9744 40.6504 32.0046C40.6503 32.0347 41.0447 32.0498 41.5269 32.0381L42.4036 32.0166L42.2754 32.234C41.7259 33.1663 39.6242 35.319 37.9644 36.6498C37.604 36.9389 37.3091 37.1954 37.3091 37.2199C37.3092 37.2444 37.6303 37.3392 38.0227 37.4306C38.6868 37.5854 38.9569 37.6412 38.9663 37.7256C38.9731 37.7872 38.8414 37.8639 38.6228 38.0053C36.9448 39.0906 34.9541 40.1285 33.4287 40.7135L32.4374 41.0937L33.1502 41.5699C33.5423 41.8318 33.8754 42.0547 33.8904 42.0651C33.9528 42.1087 33.7244 42.3017 33.3875 42.4903C32.7326 42.8568 31.734 43.1276 28.6071 43.7868C25.9244 44.3524 24.7847 44.6812 23.7515 45.1878L23.2468 45.4352V47.4701C23.2468 48.6102 23.2745 49.5221 23.3098 49.5439C23.3444 49.5652 23.4717 49.3719 23.5925 49.1142C24.1867 47.8468 25.221 46.5965 26.5883 45.4927C27.8513 44.4732 27.9372 44.4361 30.626 43.7482C31.7262 43.4668 32.1243 43.3653 32.5192 43.2527C32.7628 43.1832 33.0052 43.1094 33.4106 42.9865C34.1164 42.7725 35.3979 42.2071 35.6626 41.9928C35.833 41.8549 35.7871 41.7969 35.2092 41.4209C34.9398 41.2455 34.746 41.0783 34.7785 41.0491C34.8111 41.0201 35.2292 40.7944 35.7079 40.5477C37.6217 39.5614 38.8976 38.6779 40.1457 37.4748C40.5747 37.0612 40.7753 36.8823 40.7413 36.7839C40.7116 36.6979 40.5028 36.6734 40.111 36.6077C39.8334 36.5612 39.6063 36.5062 39.6063 36.4853C39.6063 36.4646 39.8663 36.163 40.1842 35.815C41.3533 34.535 42.4512 33.0423 43.3229 31.5471C43.5761 31.1128 43.7832 30.7431 43.7832 30.7254C43.7832 30.7076 43.4699 30.7039 43.087 30.717C42.704 30.7301 42.3907 30.7196 42.3908 30.6935C42.3909 30.6675 42.5928 30.244 42.8397 29.7524C43.7223 27.9944 44.3445 26.1649 44.5835 24.6244L44.6281 24.3375L44.223 24.4386C43.3791 24.6491 43.2153 24.6806 43.1745 24.6401C43.1515 24.6171 43.1692 24.3565 43.2139 24.0608C43.4691 22.371 43.6262 18.4453 43.4595 17.9261L43.4003 17.7419L42.818 18.0859C42.4977 18.275 42.2268 18.4204 42.2159 18.4088C42.2049 18.3973 42.163 18.0444 42.1226 17.6245C42.0129 16.4824 41.8377 14.999 41.801 14.9004C41.7831 14.8526 41.7194 14.5247 41.6593 14.1717C41.5992 13.8187 41.5023 13.3738 41.444 13.183C41.2291 12.4788 40.9829 11.8297 40.9309 11.8297C40.9014 11.8297 40.637 12.021 40.3432 12.2547C40.0495 12.4884 39.8004 12.668 39.7896 12.6538C39.7788 12.6395 39.7001 12.456 39.6148 12.2461C39.5294 12.0362 39.432 11.802 39.3981 11.7256C39.3644 11.6493 39.1738 11.2121 38.9748 10.754C38.6368 9.97649 38.3152 9.33788 37.925 8.66971C37.7006 8.28559 37.2134 7.59819 37.1647 7.59722C37.1428 7.59674 36.8955 7.86267 36.6153 8.18808C36.1679 8.70767 36.0921 8.7684 35.9938 8.68623C34.9335 7.79952 34.163 7.2537 33.2204 6.72155C31.2267 5.59597 29.0121 4.88963 26.1706 4.47282C25.0695 4.31133 24.9166 4.30502 24.9205 4.4214C24.9221 4.46914 25.2117 4.71114 25.5642 4.95924C26.3049 5.48056 27.0934 6.16449 27.8529 6.94439C29.8718 9.01761 31.1534 11.5476 31.6107 14.3628C31.7327 15.1139 31.7257 17.7781 31.5997 18.5961C31.4229 19.7431 31.5031 21.7285 31.7735 22.8984C32.1654 24.5942 32.2512 24.9369 32.3328 25.1323C32.474 25.4708 32.6865 26.2843 32.8641 27.1668C33.0046 27.865 33.0241 28.1605 33.02 29.5264C33.0166 30.6497 32.9861 31.2139 32.9113 31.5369C32.8083 31.9823 32.8065 31.9846 32.6992 31.8145C32.5435 31.5677 31.83 30.3286 31.5564 29.8301L31.3232 29.4051L31.8749 29.3172L31.6681 28.9677C31.5543 28.7754 31.4613 28.6037 31.4613 28.5861C31.4613 28.5685 31.2466 28.1717 30.9843 27.7043C30.7219 27.2369 30.3734 26.6047 30.2097 26.2993C30.0461 25.994 29.8827 25.7071 29.8466 25.6617C29.8005 25.6042 29.8452 25.5461 29.9945 25.4691C30.1121 25.4085 30.2083 25.3437 30.2083 25.3251C30.2083 25.3064 29.7697 24.3998 29.2337 23.3103C28.6976 22.2208 28.2591 21.3134 28.2591 21.2938C28.2591 21.2365 29.1657 19.9565 29.2378 19.9122C29.3336 19.853 29.3127 19.5051 29.1739 18.8506C29.0826 18.4198 29.0326 18.2959 28.978 18.3649C28.9377 18.4157 28.7912 18.6203 28.6524 18.8195C28.5138 19.0187 28.2525 19.3935 28.0719 19.6523C26.6938 21.6271 24.0819 25.673 23.2998 27.0445C23.1749 27.2636 23.0535 27.4432 23.03 27.4436C23.0065 27.4441 22.9094 27.3273 22.8141 27.1842C22.5776 26.8288 21.9395 25.8378 21.6065 25.3087C20.9928 24.3337 20.7761 23.9939 19.1402 21.4414C18.7243 20.7926 18.1421 19.8791 17.8465 19.4116L17.3088 18.5615L17.0097 19.2237C16.8451 19.5879 16.6932 19.9401 16.6721 20.0065C16.646 20.0884 16.801 20.3273 17.1541 20.7496C17.4403 21.0919 17.6752 21.4078 17.6761 21.4515C17.6811 21.7107 16.6412 23.9063 15.9441 25.1083C15.7485 25.4456 15.6061 25.7501 15.6277 25.7849C15.6493 25.8197 15.777 25.8483 15.9116 25.8483C16.073 25.8483 16.1486 25.8778 16.1337 25.935C16.1213 25.9827 15.7878 26.6233 15.3924 27.3585C14.738 28.5755 14.5495 28.4917 14.5495 28.4917ZM23.1772 9.59535C23.1772 9.50104 23.213 9.24586 23.2569 9.02822C23.303 8.79921 23.3689 8.64327 23.4132 8.65798C23.4553 8.672 23.5213 8.9151 23.5598 9.19825L23.6297 9.71305L24.0299 9.705C24.2501 9.70056 24.4286 9.71618 24.4268 9.7397C24.4248 9.76323 24.1858 9.96004 23.8956 10.1771L23.368 10.5717L22.8599 10.1798C22.5804 9.96421 22.367 9.76323 22.3857 9.73304C22.4044 9.70285 22.5902 9.69806 22.7985 9.72249C23.1668 9.76566 23.1772 9.76219 23.1772 9.59535ZM19.7962 11.9272C19.7044 11.3172 20.1302 10.6228 20.7754 10.3301C21.5073 9.998 22.3321 10.1852 23.0553 10.8476L23.2468 11.0229L23.246 13.6688L22.3936 13.6743C21.9248 13.6774 21.4197 13.715 21.2711 13.758L21.001 13.8361L20.6351 13.4625C20.2212 13.0399 19.8657 12.3893 19.7962 11.9272ZM23.7811 10.8438C24.005 10.609 24.2581 10.4582 24.7087 10.2911C25.1303 10.1347 25.438 10.1375 25.8884 10.3016C26.3253 10.4608 26.6739 10.7705 26.8806 11.1831C27.1877 11.7962 26.8713 12.7962 26.1426 13.5159C25.8796 13.7757 25.7679 13.8428 25.6553 13.8089C25.3132 13.7058 24.3618 13.6289 23.9495 13.6711L23.5035 13.7169L23.5843 11.0502L23.7811 10.8438ZM21.1237 13.9924C21.1491 13.9671 21.363 13.9256 21.5991 13.9002C22.1225 13.8439 25.2387 13.8842 25.4571 13.95C25.5965 13.992 25.6137 14.0424 25.6137 14.4075V14.8177L24.7609 14.7638C23.6825 14.6955 23.0199 14.6957 21.9177 14.7646L21.0411 14.8193L21.0594 14.4288C21.0694 14.214 21.0984 14.0176 21.1237 13.9924ZM20.5318 17.035C21.2143 16.353 21.8292 15.9926 22.5854 15.8313C22.9058 15.763 23.047 15.7298 23.1881 15.7303C23.3223 15.7308 23.4564 15.7619 23.7445 15.8223C24.3696 15.9534 24.9039 16.2084 25.4048 16.6149C25.8965 17.0137 26.0371 17.1635 26.7276 18.0236C26.7506 18.0523 27.143 17.6414 27.5995 17.1106L28.4295 16.1455L28.5837 16.8156C28.6686 17.1842 28.7399 17.522 28.7422 17.5664C28.7445 17.6108 28.5506 17.8962 28.3113 18.2007C27.8984 18.7259 27.2105 19.6555 26.3241 20.8862C26.1042 21.1916 25.7249 21.7537 25.4813 22.1354C25.2378 22.5171 24.9884 22.9075 24.9272 23.0029C24.3698 23.8721 23.2359 26.0417 23.1401 26.4225C23.0711 26.6963 22.9939 26.6579 22.7876 26.2473C22.5233 25.7213 20.1897 21.6482 19.6339 20.7429C19.0963 19.867 18.5045 19.0008 18.0145 18.372C17.6685 17.9282 17.6286 17.8149 17.7444 17.6062C17.8663 17.3865 18.2345 16.4921 18.2345 16.4157C18.2345 16.2852 18.3656 16.3344 18.4504 16.4968C18.6025 16.7878 19.5085 18.145 19.5504 18.1445C19.5733 18.1442 19.6703 18.0275 19.766 17.8851C19.8618 17.7427 20.2063 17.3601 20.5318 17.035ZM25.5693 17.4527C25.1505 17.0017 24.712 16.6973 24.184 16.4912C23.3834 16.1786 22.4809 16.2773 21.6533 16.7679C20.9147 17.2058 19.6896 18.7467 19.885 18.9921C20.1088 19.2729 22.6463 24.3188 22.9052 24.998C22.9858 25.209 23.0823 25.1949 23.1403 24.9634C23.2822 24.397 25.3299 20.5006 26.1473 19.2417C26.3132 18.9861 26.4491 18.756 26.4491 18.7303C26.4491 18.6048 25.9037 17.8128 25.5693 17.4527Z" fill="#2B323C"/>
<path d="M23.6396 0.921968C22.763 1.99008 21.2923 3.17319 19.766 4.03797C18.8129 4.5781 18.5466 4.70593 16.3897 5.65899C15.5857 6.01431 14.4124 6.56436 13.7825 6.88131C13.1525 7.19825 12.6043 7.45759 12.5642 7.45766C12.5149 7.45766 12.4977 6.92836 12.5112 5.82117C12.531 4.19023 12.4958 3.95941 12.3138 4.52647C12.2264 4.79879 11.7432 5.77322 11.5486 6.06962C10.9968 6.91024 10.7146 7.25883 9.97616 8.01278C9.03928 8.96931 8.3936 9.70375 7.56644 10.7539C7.26577 11.1357 6.98209 11.4956 6.93607 11.5538C6.89013 11.6119 6.68184 11.8852 6.47334 12.161C6.26485 12.4368 6.06902 12.6625 6.03825 12.6625C6.00748 12.6625 5.98228 12.5474 5.98228 12.4067C5.98228 12.1174 5.75568 11.2575 5.55589 10.7887C5.40573 10.4364 5.08327 9.8109 5.00857 9.72707C4.98142 9.6966 4.94 9.91521 4.91647 10.2129C4.80593 11.614 4.4481 13.0076 3.82429 14.4669C3.19288 15.9439 2.58159 18.0495 2.36369 19.4983C2.31775 19.8036 2.2489 20.2252 2.21068 20.4352C2.17246 20.6451 2.12401 21.5117 2.10299 22.361C2.08196 23.2103 2.04555 23.9038 2.02209 23.9023C1.99863 23.9008 1.86191 23.7524 1.71823 23.5727C1.57461 23.3929 1.36221 23.139 1.24631 23.0085C1.1304 22.878 0.825344 22.5267 0.568395 22.2278C0.311516 21.9289 0.077471 21.6843 0.048372 21.6843C-0.0382986 21.6843 -0.0137943 21.9217 0.165046 22.815C0.25833 23.2809 0.38503 23.9276 0.4465 24.2521C0.620328 25.1693 0.969169 26.7519 1.07373 27.0974C1.64402 28.982 2.00392 29.8642 2.79962 31.328C3.36615 32.3701 5.0156 34.8128 5.42578 35.2171C5.55331 35.3428 5.85147 35.787 5.82557 35.8128C5.80824 35.8301 5.27074 35.7403 4.63105 35.6132C3.99136 35.4861 3.45338 35.4058 3.43549 35.4346C3.41759 35.4635 3.58968 35.6135 3.81795 35.768C4.30637 36.0987 4.78351 36.4944 6.30905 37.8342C7.49139 38.8725 8.70916 39.8474 9.03002 40.0123C9.13416 40.0659 9.26058 40.1486 9.31099 40.196C9.53153 40.404 11.0436 41.2034 11.7995 41.5117C12.2501 41.6955 12.9999 41.9481 13.2453 41.999C13.3885 42.0286 13.5061 42.0841 13.5067 42.1223C13.5079 42.1978 13.3988 42.2286 12.3388 42.4511C11.9487 42.533 11.6439 42.6235 11.6617 42.652C11.6984 42.7112 12.9665 43.1092 13.8488 43.3384C14.1742 43.4229 14.6441 43.548 14.893 43.6163C15.1419 43.6846 15.4551 43.7619 15.5891 43.7883C16.7716 44.0209 19.121 44.9367 20.1359 45.5608C21.1038 46.1558 21.9952 47.079 22.4113 47.917C22.5345 48.1651 22.6619 48.4204 22.6947 48.4843C22.7273 48.5482 22.7921 48.8059 22.8384 49.0569C22.8848 49.3079 22.9487 49.5132 22.9804 49.5132C23.012 49.5132 23.0379 48.5953 23.0379 47.4734V45.4338L22.8489 45.3864C22.7449 45.3604 22.5274 45.279 22.3655 45.2054C22.2035 45.1319 22.0349 45.0717 21.9906 45.0717C21.9464 45.0717 21.8116 45.0276 21.691 44.9736C21.3975 44.8424 20.131 44.4471 20.0041 44.4471C19.9487 44.4471 19.8489 44.4163 19.7825 44.3786C19.6627 44.3107 19.0202 44.1421 17.893 43.8826C17.5711 43.8086 17.2822 43.7322 17.251 43.7129C17.2197 43.6936 16.9505 43.6321 16.6527 43.5761C16.3549 43.5201 15.9076 43.4306 15.6588 43.3774C15.4099 43.3241 15.0363 43.2461 14.8287 43.204C14.2221 43.0811 14.2319 43.0644 15.0322 42.8581C15.3577 42.7741 15.7962 42.6608 16.0068 42.6062C16.2174 42.5515 16.5123 42.4631 16.6622 42.4098C16.9044 42.3235 16.9198 42.305 16.8014 42.2429C16.7281 42.2045 16.5272 42.1515 16.3549 42.1251C15.4635 41.9885 13.4563 41.5297 13.2829 41.4228C13.2485 41.4016 13.0251 41.3275 12.7862 41.258C11.8042 40.9725 10.2075 40.2244 9.25418 39.6032C8.3283 38.9999 6.97979 37.7888 7.16518 37.7272C7.2318 37.705 8.8399 37.8944 9.16716 37.9629C9.46247 38.0247 9.33034 37.8163 8.85389 37.4689C7.84086 36.7302 6.35548 35.3804 5.49428 34.4159C5.3224 34.2234 5.07206 33.9426 4.93805 33.792C4.30846 33.0845 3.38669 31.7002 2.90641 30.7409C2.49039 29.91 2.04827 28.7398 1.87152 28.0023C1.69637 27.2713 1.51404 26.1156 1.5657 26.0641C1.58888 26.041 2.14733 26.5763 2.80672 27.2537C3.46612 27.9311 4.04315 28.4854 4.08896 28.4854C4.18614 28.4854 4.20055 28.3722 4.1104 28.3166C4.07636 28.2957 4.02693 28.1923 4.00062 28.087C3.97424 27.9817 3.91005 27.8018 3.85798 27.6873C3.73323 27.4132 3.45505 26.5678 3.27558 25.9177C3.15313 25.4739 3.09514 25.2195 2.94352 24.4603C2.70432 23.2623 2.64069 20.7321 2.81612 19.3942C2.95424 18.3412 3.2996 16.8844 3.54833 16.3059C3.58119 16.2296 3.69271 15.9485 3.79623 15.6813C4.07566 14.96 4.58288 13.9117 4.65249 13.9117C4.80711 13.9117 5.2122 15.2078 5.21637 15.716C5.22062 16.2245 5.37983 16.456 5.46699 16.0804C5.85119 14.4255 6.79183 12.4346 7.85784 11.0198C8.26669 10.4773 9.73731 8.97618 10.1604 8.66971C10.3166 8.55645 10.5568 8.37796 10.6942 8.27303C11.1015 7.96191 11.146 8.00022 11.0977 8.62002C11.0611 9.08999 10.9151 9.9556 10.811 10.3203C10.7433 10.5572 10.8929 10.437 11.0627 10.1179C11.4129 9.45995 12.1889 8.71891 13.2346 8.04408C13.976 7.56558 15.7092 6.58143 16.6334 6.11417C18.2408 5.30144 20.4034 4.18128 21.2219 3.7374C21.3909 3.6458 21.5401 3.58167 21.5535 3.595C21.6308 3.67217 20.9587 4.90948 20.2659 5.96552C19.5056 7.12434 18.8313 7.91111 17.2921 9.43546C15.39 11.3191 14.6168 12.3406 13.2358 14.7936L12.9541 15.2938L13.6277 14.9564C14.9932 14.2724 15.9435 13.8328 16.0095 13.8548C16.1999 13.918 15.571 14.7496 14.3398 16.063C12.6733 17.8408 12.3511 18.285 11.9297 19.385C11.6868 20.019 11.3499 21.2361 11.1395 22.2395C11.0714 22.564 10.9965 22.8919 10.973 22.9682C10.9363 23.0872 10.5769 25.4791 10.5769 25.6042C10.5769 25.6287 11.1172 25.1474 11.7777 24.5347C12.5554 23.8132 12.9866 23.4575 13.0013 23.5252C13.0272 23.644 12.8338 24.5622 12.7387 24.7726C12.7042 24.8489 12.5758 25.2237 12.4534 25.6054C12.331 25.9871 12.1897 26.4243 12.1393 26.5769C11.7586 27.7301 11.775 29.5936 12.1777 30.9491C12.4188 31.7604 12.559 32.1871 12.7138 32.5799C12.9665 33.2215 13.7097 34.6915 14.0297 35.1824L14.3011 35.5988L14.3496 34.766C14.4091 33.7467 14.5249 32.8291 14.6319 32.5279C14.7222 32.274 14.8615 32.2329 14.9277 32.4408C15.0027 32.6765 15.7557 33.9773 16.1129 34.4884C16.5349 35.0922 17.5819 36.1331 18.1726 36.5361C18.4172 36.7031 18.7564 36.9336 18.9264 37.0484C19.3377 37.3262 21.4506 38.5482 21.5197 38.5482C21.5496 38.5482 21.512 38.383 21.4362 38.181C20.9441 36.8697 20.8883 35.0586 21.308 34.0178C21.3796 33.8404 21.3927 33.8348 21.4701 33.9484C21.5165 34.0164 21.5925 34.2281 21.6392 34.419C21.7703 34.9559 22.2486 36.1032 22.5591 36.6259C23.1047 37.5443 23.9412 38.2967 24.7959 38.6377C25.4016 38.8795 25.4805 38.8871 25.5478 38.7103C25.599 38.5754 25.5432 38.5258 25.0001 38.2245C23.9003 37.6141 23.3335 36.8969 22.7609 35.3906C22.6738 35.1616 22.5586 34.8649 22.5048 34.7313C22.3837 34.4305 22.1735 33.6934 21.8221 32.337C21.648 31.665 21.4131 31.0156 21.2509 30.7582C21.0363 30.4176 20.8421 30.4111 20.7797 30.7427C20.7223 31.0478 20.4841 31.7792 20.0401 33.0142C19.5054 34.5013 19.3769 35.2429 19.5171 36.0325C19.5458 36.1947 19.549 36.3275 19.5242 36.3275C19.4134 36.3275 18.6457 35.93 18.2219 35.6533C17.3936 35.1125 16.4488 34.086 15.9362 33.1698C15.7346 32.8096 15.5148 32.1319 15.1637 30.7874C14.8127 29.4439 14.8177 29.4964 15.0379 29.4709L14.5495 28.4917C14.4799 28.3182 14.1052 27.431 13.9734 27.3221C13.879 27.2442 13.8628 27.3985 13.8272 28.71C13.7992 29.7429 13.7451 30.4121 13.6471 30.9402C13.57 31.3551 13.4921 31.7095 13.474 31.7275C13.4087 31.7926 13.0149 31.2874 12.8092 30.8747C12.4593 30.1728 12.3582 29.6704 12.3629 28.6589C12.3676 27.658 12.5183 26.7902 12.8508 25.8483C12.9938 25.4432 13.9692 22.9615 14.0919 22.6906C14.4018 22.0065 15.1714 19.4551 15.1714 19.1121C15.1714 18.952 15.0194 19.0861 14.6254 19.5938C14.0868 20.2879 13.0279 21.3279 12.4557 21.7249C12.2128 21.8934 11.9864 22.0313 11.9525 22.0313C11.8335 22.0313 12.1495 20.3377 12.3927 19.6718C12.9154 18.2409 13.25 17.7579 14.7487 16.2712C15.9161 15.1132 16.8105 14.041 17.4985 12.9748C18.0873 12.0624 18.2207 11.8462 18.4741 11.3926L18.7376 10.9207L18.3409 11.1347C17.3867 11.6493 15.2978 12.6728 15.2661 12.6412C15.204 12.5793 15.5052 12.0653 15.9303 11.5075C16.4737 10.7944 17.138 10.117 17.9433 9.4544C20.5512 7.30873 22.4674 4.96632 23.3802 2.80788C23.5013 2.52161 23.6276 2.23777 23.6608 2.17711C23.7398 2.03304 24.1518 0.659502 24.1518 0.540275C24.1518 0.359144 24.0224 0.455539 23.6396 0.921968Z" fill="#983031"/>
<path d="M73.1962 9.25418H82.5163C84.7695 9.25418 86.8434 9.62118 88.7381 10.3552C90.6329 11.0892 92.2801 12.139 93.6798 13.5045C95.0795 14.8701 96.1635 16.5173 96.9316 18.4462C97.6997 20.3751 98.0838 22.5429 98.0838 24.9497C98.0838 27.2712 97.6997 29.3708 96.9316 31.2484C96.1635 33.1261 95.0795 34.7307 93.6798 36.0621C92.2801 37.3935 90.6329 38.4177 88.7381 39.1346C86.8434 39.8345 84.7695 40.1844 82.5163 40.1844H73.1962C70.926 40.1844 68.8349 39.8345 66.9231 39.1346C65.0113 38.4177 63.347 37.4021 61.9302 36.0877C60.5305 34.7563 59.4381 33.1602 58.6529 31.2997C57.8847 29.422 57.5007 27.3224 57.5007 25.0009C57.5007 22.5941 57.8847 20.4263 58.6529 18.4974C59.4381 16.5685 60.5305 14.9128 61.9302 13.5301C63.347 12.1475 65.0113 11.0892 66.9231 10.3552C68.8349 9.62118 70.926 9.25418 73.1962 9.25418ZM73.1962 16.4746C71.8306 16.4746 70.6016 16.7819 69.5092 17.3964C68.4167 18.0109 67.5547 18.9498 66.9231 20.2129C66.2915 21.459 65.9757 23.055 65.9757 25.0009C65.9757 26.3495 66.1635 27.5273 66.539 28.5344C66.9146 29.5415 67.4352 30.3694 68.1009 31.018C68.7666 31.6667 69.5348 32.1531 70.4053 32.4775C71.2759 32.8018 72.2062 32.9639 73.1962 32.9639H82.5675C83.8989 32.9639 85.0938 32.6738 86.1521 32.0934C87.2104 31.496 88.0468 30.5998 88.6613 29.4049C89.2929 28.21 89.6087 26.725 89.6087 24.9497C89.6087 23.4988 89.4295 22.2442 89.071 21.1859C88.7125 20.1276 88.209 19.2485 87.5603 18.5486C86.9288 17.8488 86.1862 17.3281 85.3328 16.9867C84.4793 16.6453 83.5575 16.4746 82.5675 16.4746H73.1962ZM82.1578 4.54295V44.8956H73.5291V4.54295H82.1578ZM128.22 36.4462V43.3594H108.351V36.4462H128.22ZM111.552 6.07922V43.3594H102.565V6.07922H111.552ZM125.66 20.8786V27.5614H108.351V20.8786H125.66ZM128.297 6.07922V13.018H108.351V6.07922H128.297ZM157.025 20.8786V27.7918H137.899V20.8786H157.025ZM140.895 6.07922V43.3594H131.907V6.07922H140.895ZM163.068 6.07922V43.3594H154.106V6.07922H163.068ZM177.253 29.6098L190.644 6.07922H199.631V43.3594H190.644V19.8544L177.253 43.3594H168.266V6.07922H177.253V29.6098ZM214.047 6.07922V43.3594H205.085V6.07922H214.047ZM235.554 6.07922L222.163 28.6112H212.485L211.409 20.4946H217.529L224.698 6.07922H235.554ZM226.234 43.3594L217.503 27.0493L224.032 21.0322L236.835 43.3594H226.234ZM259.469 30.7364H268.431C268.311 33.3309 267.611 35.6183 266.331 37.5984C265.051 39.5784 263.275 41.1232 261.005 42.2328C258.752 43.3252 256.089 43.8715 253.017 43.8715C250.524 43.8715 248.297 43.4533 246.334 42.6168C244.388 41.7804 242.732 40.577 241.367 39.0066C240.018 37.4362 238.985 35.5329 238.268 33.2968C237.569 31.0607 237.219 28.5429 237.219 25.7435V23.7207C237.219 20.9213 237.586 18.4035 238.32 16.1674C239.071 13.9142 240.129 12.0024 241.495 10.432C242.877 8.84451 244.533 7.63256 246.462 6.79615C248.391 5.95973 250.533 5.54153 252.889 5.54153C256.132 5.54153 258.872 6.1219 261.108 7.28263C263.344 8.44337 265.076 10.0394 266.305 12.0707C267.534 14.0849 268.26 16.3808 268.482 18.9583H259.52C259.486 17.5586 259.247 16.3893 258.803 15.4505C258.359 14.4946 257.66 13.7776 256.704 13.2997C255.748 12.8217 254.476 12.5828 252.889 12.5828C251.779 12.5828 250.815 12.7876 249.995 13.1973C249.176 13.6069 248.493 14.2556 247.947 15.1432C247.401 16.0308 246.991 17.183 246.718 18.5998C246.462 19.9995 246.334 21.6894 246.334 23.6695V25.7435C246.334 27.7236 246.453 29.4135 246.692 30.8132C246.931 32.2129 247.315 33.3565 247.845 34.2442C248.374 35.1318 249.056 35.789 249.893 36.2157C250.746 36.6254 251.788 36.8302 253.017 36.8302C254.382 36.8302 255.534 36.6169 256.473 36.1901C257.412 35.7463 258.138 35.0806 258.65 34.193C259.162 33.2883 259.435 32.1361 259.469 30.7364Z" fill="#983031"/>
<path d="M7.10938 58.2769V59.2734H2.10742V58.2769H7.10938ZM2.29785 54.3032V63.5454H1.07275V54.3032H2.29785ZM8.17578 54.3032V63.5454H6.95703V54.3032H8.17578ZM14.8751 62.3711V58.8354C14.8751 58.5646 14.8201 58.3298 14.7101 58.1309C14.6043 57.9277 14.4435 57.7712 14.2276 57.6611C14.0118 57.5511 13.7452 57.4961 13.4278 57.4961C13.1316 57.4961 12.8714 57.5469 12.6471 57.6484C12.427 57.75 12.2535 57.8833 12.1266 58.0483C12.0038 58.2134 11.9425 58.3911 11.9425 58.5815H10.7682C10.7682 58.3361 10.8316 58.0928 10.9586 57.8516C11.0855 57.6104 11.2675 57.3924 11.5045 57.1978C11.7457 56.9989 12.0335 56.8423 12.3678 56.728C12.7063 56.6095 13.0829 56.5503 13.4977 56.5503C13.997 56.5503 14.4371 56.6349 14.818 56.8042C15.2031 56.9735 15.5035 57.2295 15.7193 57.5723C15.9394 57.9108 16.0494 58.3361 16.0494 58.8481V62.0474C16.0494 62.2759 16.0685 62.5192 16.1065 62.7773C16.1489 63.0355 16.2102 63.2576 16.2906 63.4438V63.5454H15.0655C15.0063 63.41 14.9597 63.2301 14.9259 63.0059C14.892 62.7773 14.8751 62.5658 14.8751 62.3711ZM15.0782 59.3813L15.0909 60.2065H13.9039C13.5696 60.2065 13.2713 60.234 13.0089 60.2891C12.7465 60.3398 12.5265 60.4181 12.3487 60.5239C12.171 60.6297 12.0356 60.763 11.9425 60.9238C11.8494 61.0804 11.8028 61.2645 11.8028 61.4761C11.8028 61.6919 11.8515 61.8887 11.9488 62.0664C12.0462 62.2441 12.1922 62.3859 12.3868 62.4917C12.5857 62.5933 12.829 62.644 13.1168 62.644C13.4765 62.644 13.7939 62.5679 14.0689 62.4155C14.344 62.2632 14.5619 62.077 14.7228 61.8569C14.8878 61.6369 14.9767 61.4232 14.9894 61.2158L15.4908 61.7808C15.4612 61.9585 15.3808 62.1553 15.2496 62.3711C15.1184 62.5869 14.9428 62.7943 14.7228 62.9932C14.5069 63.1878 14.2488 63.3507 13.9483 63.4819C13.6521 63.6089 13.3178 63.6724 12.9454 63.6724C12.4799 63.6724 12.0715 63.5814 11.7203 63.3994C11.3733 63.2174 11.1025 62.9741 10.9078 62.6694C10.7174 62.3605 10.6222 62.0156 10.6222 61.6348C10.6222 61.2666 10.6941 60.9429 10.838 60.6636C10.9819 60.38 11.1892 60.1452 11.4601 59.959C11.7309 59.7686 12.0567 59.6247 12.4376 59.5273C12.8185 59.43 13.2437 59.3813 13.7135 59.3813H15.0782ZM20.3747 62.8345L22.2854 56.6772H23.5422L20.7873 64.6055C20.7238 64.7747 20.6392 64.9567 20.5334 65.1514C20.4318 65.3503 20.3007 65.5386 20.1398 65.7163C19.979 65.894 19.7844 66.0379 19.5559 66.1479C19.3316 66.2622 19.0629 66.3193 18.7497 66.3193C18.6566 66.3193 18.5381 66.3066 18.3942 66.2812C18.2504 66.2559 18.1488 66.2347 18.0896 66.2178L18.0832 65.2656C18.1171 65.2699 18.17 65.2741 18.2419 65.2783C18.3181 65.2868 18.371 65.291 18.4006 65.291C18.6672 65.291 18.8936 65.255 19.0798 65.1831C19.266 65.1154 19.4226 64.999 19.5495 64.834C19.6807 64.6732 19.7928 64.451 19.8859 64.1675L20.3747 62.8345ZM18.9719 56.6772L20.7556 62.0093L21.0603 63.2471L20.216 63.6787L17.6896 56.6772H18.9719ZM30.4319 56.6772V63.5454H29.2576V56.6772H30.4319ZM30.032 59.832V60.7969C29.7951 60.8857 29.5538 60.9661 29.3084 61.0381C29.0672 61.1058 28.8112 61.1608 28.5403 61.2031C28.2737 61.2412 27.9839 61.2603 27.6707 61.2603C27.129 61.2603 26.6593 61.1672 26.2615 60.981C25.8637 60.7905 25.5569 60.5049 25.3411 60.124C25.1253 59.7389 25.0174 59.2544 25.0174 58.6704V56.6646H26.1917V58.6704C26.1917 59.0513 26.2488 59.3602 26.3631 59.5972C26.4773 59.8341 26.6445 60.0098 26.8646 60.124C27.0846 60.234 27.3533 60.2891 27.6707 60.2891C27.9754 60.2891 28.261 60.27 28.5276 60.2319C28.7985 60.1896 29.0566 60.1346 29.3021 60.0669C29.5517 59.9992 29.7951 59.9209 30.032 59.832ZM37.6327 59.6543V60.6064H34.0019V59.6543H37.6327ZM34.2494 56.6772V63.5454H33.0751V56.6772H34.2494ZM38.5849 56.6772V63.5454H37.4042V56.6772H38.5849ZM40.8154 60.1875V60.0415C40.8154 59.5464 40.8874 59.0872 41.0312 58.6641C41.1751 58.2367 41.3825 57.8664 41.6533 57.5532C41.9242 57.2358 42.2521 56.9904 42.6372 56.8169C43.0223 56.6392 43.4539 56.5503 43.9321 56.5503C44.4146 56.5503 44.8483 56.6392 45.2334 56.8169C45.6227 56.9904 45.9528 57.2358 46.2236 57.5532C46.4987 57.8664 46.7082 58.2367 46.8521 58.6641C46.9959 59.0872 47.0679 59.5464 47.0679 60.0415V60.1875C47.0679 60.6826 46.9959 61.1418 46.8521 61.5649C46.7082 61.9881 46.4987 62.3584 46.2236 62.6758C45.9528 62.9889 45.6248 63.2344 45.2397 63.4121C44.8589 63.5856 44.4272 63.6724 43.9448 63.6724C43.4624 63.6724 43.0286 63.5856 42.6436 63.4121C42.2585 63.2344 41.9284 62.9889 41.6533 62.6758C41.3825 62.3584 41.1751 61.9881 41.0312 61.5649C40.8874 61.1418 40.8154 60.6826 40.8154 60.1875ZM41.9897 60.0415V60.1875C41.9897 60.5303 42.0299 60.854 42.1104 61.1587C42.1908 61.4591 42.3114 61.7257 42.4722 61.9585C42.6372 62.1912 42.8424 62.3753 43.0879 62.5107C43.3333 62.6419 43.619 62.7075 43.9448 62.7075C44.2664 62.7075 44.5479 62.6419 44.7891 62.5107C45.0345 62.3753 45.2376 62.1912 45.3984 61.9585C45.5592 61.7257 45.6799 61.4591 45.7603 61.1587C45.8449 60.854 45.8872 60.5303 45.8872 60.1875V60.0415C45.8872 59.703 45.8449 59.3835 45.7603 59.083C45.6799 58.7783 45.5571 58.5096 45.3921 58.2769C45.2313 58.0399 45.0282 57.8537 44.7827 57.7183C44.5415 57.5828 44.258 57.5151 43.9321 57.5151C43.6105 57.5151 43.327 57.5828 43.0815 57.7183C42.8403 57.8537 42.6372 58.0399 42.4722 58.2769C42.3114 58.5096 42.1908 58.7783 42.1104 59.083C42.0299 59.3835 41.9897 59.703 41.9897 60.0415ZM51.6344 59.1338V60.0986H48.5367V59.1338H51.6344ZM58.01 56.6772V57.6484H54.5378V56.6772H58.01ZM54.7092 56.6772V63.5454H53.5349V56.6772H54.7092ZM59.051 56.6772V63.5454H57.8703V56.6772H59.051ZM62.7605 57.9976V66.186H61.5799V56.6772H62.659L62.7605 57.9976ZM67.388 60.0542V60.1875C67.388 60.6868 67.3287 61.1502 67.2103 61.5776C67.0918 62.0008 66.9183 62.369 66.6897 62.6821C66.4655 62.9953 66.1883 63.2386 65.8582 63.4121C65.5281 63.5856 65.1494 63.6724 64.722 63.6724C64.2861 63.6724 63.901 63.6004 63.5667 63.4565C63.2324 63.3127 62.9489 63.1032 62.7161 62.8281C62.4834 62.5531 62.2972 62.223 62.1575 61.8379C62.0221 61.4528 61.929 61.019 61.8782 60.5366V59.8257C61.929 59.3179 62.0242 58.863 62.1639 58.4609C62.3035 58.0589 62.4876 57.7161 62.7161 57.4326C62.9489 57.1449 63.2303 56.9269 63.5604 56.7788C63.8904 56.6265 64.2713 56.5503 64.7029 56.5503C65.1346 56.5503 65.5175 56.6349 65.8519 56.8042C66.1862 56.9692 66.4676 57.2062 66.6961 57.5151C66.9246 57.8241 67.096 58.1943 67.2103 58.626C67.3287 59.0534 67.388 59.5295 67.388 60.0542ZM66.2073 60.1875V60.0542C66.2073 59.7114 66.1714 59.3898 66.0994 59.0894C66.0275 58.7847 65.9153 58.5181 65.763 58.2896C65.6149 58.0568 65.4244 57.8748 65.1917 57.7437C64.959 57.6082 64.6818 57.5405 64.3602 57.5405C64.0639 57.5405 63.8058 57.5913 63.5857 57.6929C63.3699 57.7944 63.1858 57.932 63.0335 58.1055C62.8812 58.2747 62.7563 58.4694 62.659 58.6895C62.5659 58.9053 62.4961 59.1296 62.4495 59.3623V61.0063C62.5341 61.3026 62.6526 61.5819 62.805 61.8442C62.9573 62.1024 63.1604 62.3118 63.4144 62.4727C63.6683 62.6292 63.9878 62.7075 64.3729 62.7075C64.6902 62.7075 64.9632 62.6419 65.1917 62.5107C65.4244 62.3753 65.6149 62.1912 65.763 61.9585C65.9153 61.7257 66.0275 61.4591 66.0994 61.1587C66.1714 60.854 66.2073 60.5303 66.2073 60.1875ZM69.225 60.1875V60.0415C69.225 59.5464 69.2969 59.0872 69.4408 58.6641C69.5847 58.2367 69.7921 57.8664 70.0629 57.5532C70.3337 57.2358 70.6617 56.9904 71.0468 56.8169C71.4319 56.6392 71.8635 56.5503 72.3417 56.5503C72.8241 56.5503 73.2579 56.6392 73.643 56.8169C74.0323 56.9904 74.3624 57.2358 74.6332 57.5532C74.9083 57.8664 75.1177 58.2367 75.2616 58.6641C75.4055 59.0872 75.4774 59.5464 75.4774 60.0415V60.1875C75.4774 60.6826 75.4055 61.1418 75.2616 61.5649C75.1177 61.9881 74.9083 62.3584 74.6332 62.6758C74.3624 62.9889 74.0344 63.2344 73.6493 63.4121C73.2685 63.5856 72.8368 63.6724 72.3544 63.6724C71.872 63.6724 71.4382 63.5856 71.0531 63.4121C70.668 63.2344 70.338 62.9889 70.0629 62.6758C69.7921 62.3584 69.5847 61.9881 69.4408 61.5649C69.2969 61.1418 69.225 60.6826 69.225 60.1875ZM70.3993 60.0415V60.1875C70.3993 60.5303 70.4395 60.854 70.5199 61.1587C70.6003 61.4591 70.7209 61.7257 70.8817 61.9585C71.0468 62.1912 71.252 62.3753 71.4975 62.5107C71.7429 62.6419 72.0285 62.7075 72.3544 62.7075C72.676 62.7075 72.9574 62.6419 73.1986 62.5107C73.4441 62.3753 73.6472 62.1912 73.808 61.9585C73.9688 61.7257 74.0894 61.4591 74.1698 61.1587C74.2545 60.854 74.2968 60.5303 74.2968 60.1875V60.0415C74.2968 59.703 74.2545 59.3835 74.1698 59.083C74.0894 58.7783 73.9667 58.5096 73.8017 58.2769C73.6409 58.0399 73.4377 57.8537 73.1923 57.7183C72.9511 57.5828 72.6675 57.5151 72.3417 57.5151C72.0201 57.5151 71.7366 57.5828 71.4911 57.7183C71.2499 57.8537 71.0468 58.0399 70.8817 58.2769C70.7209 58.5096 70.6003 58.7783 70.5199 59.083C70.4395 59.3835 70.3993 59.703 70.3993 60.0415ZM78.8696 61.6855L82.0371 56.6772H83.2178V63.5454H82.0371V58.5371L78.8696 63.5454H77.7017V56.6772H78.8696V61.6855ZM88.3175 60.2637H87.0543V59.54H88.2223C88.5481 59.54 88.8063 59.4998 88.9967 59.4194C89.1871 59.3348 89.3225 59.2184 89.4029 59.0703C89.4833 58.9222 89.5235 58.7487 89.5235 58.5498C89.5235 58.3721 89.477 58.2049 89.3839 58.0483C89.295 57.8875 89.1511 57.7585 88.9522 57.6611C88.7534 57.5596 88.4868 57.5088 88.1524 57.5088C87.8816 57.5088 87.6362 57.5575 87.4161 57.6548C87.1961 57.7479 87.0204 57.877 86.8893 58.042C86.7623 58.2028 86.6988 58.3848 86.6988 58.5879H85.5245C85.5245 58.1689 85.643 57.8092 85.88 57.5088C86.1212 57.2041 86.4407 56.9692 86.8385 56.8042C87.2405 56.6392 87.6785 56.5566 88.1524 56.5566C88.5502 56.5566 88.9057 56.6011 89.2188 56.6899C89.5362 56.7746 89.8049 56.9015 90.025 57.0708C90.2451 57.2358 90.4122 57.4432 90.5265 57.6929C90.645 57.9383 90.7042 58.224 90.7042 58.5498C90.7042 58.7826 90.6492 59.0026 90.5392 59.21C90.4291 59.4173 90.2704 59.6014 90.0631 59.7622C89.8557 59.9188 89.6039 60.0415 89.3077 60.1304C89.0157 60.2192 88.6856 60.2637 88.3175 60.2637ZM87.0543 59.8193H88.3175C88.728 59.8193 89.0898 59.8595 89.4029 59.9399C89.7161 60.0161 89.9785 60.1304 90.19 60.2827C90.4016 60.4351 90.5603 60.6234 90.6661 60.8477C90.7761 61.0677 90.8312 61.3216 90.8312 61.6094C90.8312 61.931 90.7656 62.2209 90.6344 62.479C90.5074 62.7329 90.3255 62.9487 90.0885 63.1265C89.8515 63.3042 89.568 63.4396 89.2379 63.5327C88.912 63.6258 88.5502 63.6724 88.1524 63.6724C87.7081 63.6724 87.2765 63.5962 86.8575 63.4438C86.4386 63.2915 86.0937 63.0566 85.8229 62.7393C85.552 62.4176 85.4166 62.0093 85.4166 61.5142H86.5909C86.5909 61.7215 86.6565 61.9183 86.7877 62.1045C86.9189 62.2907 87.1008 62.4409 87.3336 62.5552C87.5706 62.6694 87.8435 62.7266 88.1524 62.7266C88.4825 62.7266 88.7576 62.6758 88.9776 62.5742C89.1977 62.4727 89.3627 62.3372 89.4728 62.168C89.587 61.9987 89.6441 61.8146 89.6441 61.6157C89.6441 61.3576 89.5934 61.1502 89.4918 60.9937C89.3902 60.8371 89.2337 60.7228 89.0221 60.6509C88.8147 60.5747 88.5481 60.5366 88.2223 60.5366H87.0543V59.8193ZM96.2292 60.5239H93.9758L93.9631 59.5845H95.8039C96.1678 59.5845 96.4704 59.5485 96.7116 59.4766C96.9571 59.4046 97.1411 59.2967 97.2639 59.1528C97.3866 59.009 97.448 58.8312 97.448 58.6196C97.448 58.4546 97.412 58.3107 97.34 58.188C97.2723 58.061 97.1687 57.9574 97.029 57.877C96.8894 57.7923 96.7159 57.731 96.5085 57.6929C96.3054 57.6506 96.0663 57.6294 95.7912 57.6294H94.2868V63.5454H93.1125V56.6772H95.7912C96.2271 56.6772 96.6185 56.7153 96.9655 56.7915C97.3168 56.8677 97.6151 56.984 97.8605 57.1406C98.1102 57.293 98.3007 57.4876 98.4318 57.7246C98.563 57.9616 98.6286 58.2409 98.6286 58.5625C98.6286 58.7699 98.5863 58.9666 98.5017 59.1528C98.417 59.339 98.2922 59.5041 98.1272 59.6479C97.9621 59.7918 97.759 59.9103 97.5178 60.0034C97.2766 60.0923 96.9994 60.1494 96.6862 60.1748L96.2292 60.5239ZM96.2292 63.5454H93.5505L94.1345 62.5933H96.2292C96.555 62.5933 96.8259 62.5531 97.0417 62.4727C97.2575 62.388 97.4183 62.2695 97.5241 62.1172C97.6342 61.9606 97.6892 61.7744 97.6892 61.5586C97.6892 61.3428 97.6342 61.1587 97.5241 61.0063C97.4183 60.8498 97.2575 60.7313 97.0417 60.6509C96.8259 60.5662 96.555 60.5239 96.2292 60.5239H94.4455L94.4582 59.5845H96.6862L97.1115 59.9399C97.4882 59.9696 97.8077 60.0627 98.07 60.2192C98.3324 60.3758 98.5313 60.5747 98.6667 60.8159C98.8021 61.0529 98.8698 61.311 98.8698 61.5903C98.8698 61.9119 98.8085 62.1955 98.6857 62.4409C98.5673 62.6864 98.3938 62.8916 98.1652 63.0566C97.9367 63.2174 97.6595 63.3402 97.3337 63.4248C97.0078 63.5052 96.6397 63.5454 96.2292 63.5454ZM100.783 60.1875V60.0415C100.783 59.5464 100.855 59.0872 100.999 58.6641C101.143 58.2367 101.35 57.8664 101.621 57.5532C101.892 57.2358 102.22 56.9904 102.605 56.8169C102.99 56.6392 103.422 56.5503 103.9 56.5503C104.382 56.5503 104.816 56.6392 105.201 56.8169C105.59 56.9904 105.92 57.2358 106.191 57.5532C106.466 57.8664 106.676 58.2367 106.82 58.6641C106.964 59.0872 107.035 59.5464 107.035 60.0415V60.1875C107.035 60.6826 106.964 61.1418 106.82 61.5649C106.676 61.9881 106.466 62.3584 106.191 62.6758C105.92 62.9889 105.592 63.2344 105.207 63.4121C104.826 63.5856 104.395 63.6724 103.912 63.6724C103.43 63.6724 102.996 63.5856 102.611 63.4121C102.226 63.2344 101.896 62.9889 101.621 62.6758C101.35 62.3584 101.143 61.9881 100.999 61.5649C100.855 61.1418 100.783 60.6826 100.783 60.1875ZM101.957 60.0415V60.1875C101.957 60.5303 101.998 60.854 102.078 61.1587C102.158 61.4591 102.279 61.7257 102.44 61.9585C102.605 62.1912 102.81 62.3753 103.055 62.5107C103.301 62.6419 103.587 62.7075 103.912 62.7075C104.234 62.7075 104.515 62.6419 104.757 62.5107C105.002 62.3753 105.205 62.1912 105.366 61.9585C105.527 61.7257 105.647 61.4591 105.728 61.1587C105.812 60.854 105.855 60.5303 105.855 60.1875V60.0415C105.855 59.703 105.812 59.3835 105.728 59.083C105.647 58.7783 105.525 58.5096 105.36 58.2769C105.199 58.0399 104.996 57.8537 104.75 57.7183C104.509 57.5828 104.226 57.5151 103.9 57.5151C103.578 57.5151 103.295 57.5828 103.049 57.7183C102.808 57.8537 102.605 58.0399 102.44 58.2769C102.279 58.5096 102.158 58.7783 102.078 59.083C101.998 59.3835 101.957 59.703 101.957 60.0415ZM109.939 56.6772H111.113L111.012 59.248C110.986 59.8997 110.912 60.4626 110.789 60.9365C110.667 61.4105 110.51 61.8146 110.32 62.1489C110.129 62.479 109.916 62.7562 109.679 62.9805C109.446 63.2048 109.205 63.3931 108.955 63.5454H108.371L108.403 62.5869L108.644 62.5806C108.784 62.4155 108.919 62.2463 109.05 62.0728C109.181 61.895 109.302 61.6855 109.412 61.4443C109.522 61.1989 109.613 60.9006 109.685 60.5493C109.761 60.1938 109.81 59.7601 109.831 59.248L109.939 56.6772ZM110.231 56.6772H114.363V63.5454H113.189V57.7627H110.231V56.6772ZM108.104 62.5806H115.246V65.5703H114.071V63.5454H109.279V65.5703H108.098L108.104 62.5806ZM119.945 62.7075C120.225 62.7075 120.483 62.6504 120.72 62.5361C120.957 62.4219 121.151 62.2653 121.304 62.0664C121.456 61.8633 121.543 61.6326 121.564 61.3745H122.681C122.66 61.7808 122.522 62.1595 122.269 62.5107C122.019 62.8577 121.691 63.1392 121.285 63.355C120.878 63.5666 120.432 63.6724 119.945 63.6724C119.429 63.6724 118.978 63.5814 118.593 63.3994C118.212 63.2174 117.895 62.9678 117.641 62.6504C117.391 62.333 117.203 61.9691 117.076 61.5586C116.953 61.1439 116.892 60.7059 116.892 60.2446V59.978C116.892 59.5168 116.953 59.0809 117.076 58.6704C117.203 58.2557 117.391 57.8896 117.641 57.5723C117.895 57.2549 118.212 57.0052 118.593 56.8232C118.978 56.6413 119.429 56.5503 119.945 56.5503C120.483 56.5503 120.952 56.6603 121.354 56.8804C121.757 57.0962 122.072 57.3924 122.3 57.769C122.533 58.1414 122.66 58.5646 122.681 59.0386H121.564C121.543 58.755 121.462 58.499 121.323 58.2705C121.187 58.042 121.001 57.86 120.764 57.7246C120.531 57.585 120.258 57.5151 119.945 57.5151C119.586 57.5151 119.283 57.5871 119.038 57.731C118.796 57.8706 118.604 58.061 118.46 58.3022C118.32 58.5392 118.219 58.8037 118.155 59.0957C118.096 59.3835 118.066 59.6776 118.066 59.978V60.2446C118.066 60.5451 118.096 60.8413 118.155 61.1333C118.215 61.4253 118.314 61.6898 118.454 61.9268C118.597 62.1637 118.79 62.3542 119.031 62.498C119.277 62.6377 119.581 62.7075 119.945 62.7075ZM127.451 56.6772V63.5454H126.27V56.6772H127.451ZM129.755 56.6772V57.6294H124.01V56.6772H129.755ZM134.785 60.5239H132.531L132.519 59.5845H134.36C134.724 59.5845 135.026 59.5485 135.267 59.4766C135.513 59.4046 135.697 59.2967 135.82 59.1528C135.942 59.009 136.004 58.8312 136.004 58.6196C136.004 58.4546 135.968 58.3107 135.896 58.188C135.828 58.061 135.724 57.9574 135.585 57.877C135.445 57.7923 135.272 57.731 135.064 57.6929C134.861 57.6506 134.622 57.6294 134.347 57.6294H132.842V63.5454H131.668V56.6772H134.347C134.783 56.6772 135.174 56.7153 135.521 56.7915C135.872 56.8677 136.171 56.984 136.416 57.1406C136.666 57.293 136.856 57.4876 136.988 57.7246C137.119 57.9616 137.184 58.2409 137.184 58.5625C137.184 58.7699 137.142 58.9666 137.057 59.1528C136.973 59.339 136.848 59.5041 136.683 59.6479C136.518 59.7918 136.315 59.9103 136.073 60.0034C135.832 60.0923 135.555 60.1494 135.242 60.1748L134.785 60.5239ZM134.785 63.5454H132.106L132.69 62.5933H134.785C135.111 62.5933 135.382 62.5531 135.597 62.4727C135.813 62.388 135.974 62.2695 136.08 62.1172C136.19 61.9606 136.245 61.7744 136.245 61.5586C136.245 61.3428 136.19 61.1587 136.08 61.0063C135.974 60.8498 135.813 60.7313 135.597 60.6509C135.382 60.5662 135.111 60.5239 134.785 60.5239H133.001L133.014 59.5845H135.242L135.667 59.9399C136.044 59.9696 136.363 60.0627 136.626 60.2192C136.888 60.3758 137.087 60.5747 137.222 60.8159C137.358 61.0529 137.425 61.311 137.425 61.5903C137.425 61.9119 137.364 62.1955 137.241 62.4409C137.123 62.6864 136.949 62.8916 136.721 63.0566C136.492 63.2174 136.215 63.3402 135.889 63.4248C135.564 63.5052 135.195 63.5454 134.785 63.5454ZM142.5 63.6724C142.022 63.6724 141.588 63.592 141.199 63.4312C140.813 63.2661 140.481 63.0355 140.202 62.7393C139.927 62.443 139.715 62.0918 139.567 61.6855C139.419 61.2793 139.345 60.835 139.345 60.3525V60.0859C139.345 59.5273 139.428 59.0301 139.593 58.5942C139.758 58.1541 139.982 57.7817 140.265 57.4771C140.549 57.1724 140.871 56.9417 141.23 56.7852C141.59 56.6286 141.962 56.5503 142.347 56.5503C142.838 56.5503 143.262 56.6349 143.617 56.8042C143.977 56.9735 144.271 57.2104 144.499 57.5151C144.728 57.8156 144.897 58.1711 145.007 58.5815C145.117 58.9878 145.172 59.4321 145.172 59.9146V60.4414H140.043V59.4829H143.998V59.394C143.981 59.0894 143.917 58.7931 143.807 58.5054C143.702 58.2176 143.532 57.9806 143.3 57.7944C143.067 57.6082 142.749 57.5151 142.347 57.5151C142.081 57.5151 141.835 57.5723 141.611 57.6865C141.387 57.7965 141.194 57.9616 141.033 58.1816C140.873 58.4017 140.748 58.6704 140.659 58.9878C140.57 59.3052 140.526 59.6712 140.526 60.0859V60.3525C140.526 60.6784 140.57 60.9852 140.659 61.2729C140.752 61.5565 140.885 61.8062 141.059 62.022C141.237 62.2378 141.45 62.4071 141.7 62.5298C141.954 62.6525 142.242 62.7139 142.563 62.7139C142.978 62.7139 143.329 62.6292 143.617 62.46C143.905 62.2907 144.157 62.0643 144.372 61.7808L145.083 62.3457C144.935 62.57 144.747 62.7837 144.518 62.9868C144.29 63.1899 144.008 63.355 143.674 63.4819C143.344 63.6089 142.953 63.6724 142.5 63.6724ZM151.852 59.6543V60.6064H148.222V59.6543H151.852ZM148.469 56.6772V63.5454H147.295V56.6772H148.469ZM152.805 56.6772V63.5454H151.624V56.6772H152.805ZM160.005 59.6543V60.6064H156.375V59.6543H160.005ZM156.622 56.6772V63.5454H155.448V56.6772H156.622ZM160.958 56.6772V63.5454H159.777V56.6772H160.958ZM163.188 60.1875V60.0415C163.188 59.5464 163.26 59.0872 163.404 58.6641C163.548 58.2367 163.755 57.8664 164.026 57.5532C164.297 57.2358 164.625 56.9904 165.01 56.8169C165.395 56.6392 165.827 56.5503 166.305 56.5503C166.787 56.5503 167.221 56.6392 167.606 56.8169C167.995 56.9904 168.325 57.2358 168.596 57.5532C168.871 57.8664 169.081 58.2367 169.225 58.6641C169.369 59.0872 169.441 59.5464 169.441 60.0415V60.1875C169.441 60.6826 169.369 61.1418 169.225 61.5649C169.081 61.9881 168.871 62.3584 168.596 62.6758C168.325 62.9889 167.997 63.2344 167.612 63.4121C167.232 63.5856 166.8 63.6724 166.317 63.6724C165.835 63.6724 165.401 63.5856 165.016 63.4121C164.631 63.2344 164.301 62.9889 164.026 62.6758C163.755 62.3584 163.548 61.9881 163.404 61.5649C163.26 61.1418 163.188 60.6826 163.188 60.1875ZM164.362 60.0415V60.1875C164.362 60.5303 164.403 60.854 164.483 61.1587C164.563 61.4591 164.684 61.7257 164.845 61.9585C165.01 62.1912 165.215 62.3753 165.461 62.5107C165.706 62.6419 165.992 62.7075 166.317 62.7075C166.639 62.7075 166.921 62.6419 167.162 62.5107C167.407 62.3753 167.61 62.1912 167.771 61.9585C167.932 61.7257 168.053 61.4591 168.133 61.1587C168.218 60.854 168.26 60.5303 168.26 60.1875V60.0415C168.26 59.703 168.218 59.3835 168.133 59.083C168.053 58.7783 167.93 58.5096 167.765 58.2769C167.604 58.0399 167.401 57.8537 167.155 57.7183C166.914 57.5828 166.631 57.5151 166.305 57.5151C165.983 57.5151 165.7 57.5828 165.454 57.7183C165.213 57.8537 165.01 58.0399 164.845 58.2769C164.684 58.5096 164.563 58.7783 164.483 59.083C164.403 59.3835 164.362 59.703 164.362 60.0415ZM174.413 63.6724C173.935 63.6724 173.501 63.592 173.112 63.4312C172.727 63.2661 172.395 63.0355 172.115 62.7393C171.84 62.443 171.629 62.0918 171.481 61.6855C171.333 61.2793 171.258 60.835 171.258 60.3525V60.0859C171.258 59.5273 171.341 59.0301 171.506 58.5942C171.671 58.1541 171.895 57.7817 172.179 57.4771C172.462 57.1724 172.784 56.9417 173.144 56.7852C173.503 56.6286 173.876 56.5503 174.261 56.5503C174.752 56.5503 175.175 56.6349 175.53 56.8042C175.89 56.9735 176.184 57.2104 176.413 57.5151C176.641 57.8156 176.811 58.1711 176.921 58.5815C177.031 58.9878 177.086 59.4321 177.086 59.9146V60.4414H171.957V59.4829H175.911V59.394C175.894 59.0894 175.831 58.7931 175.721 58.5054C175.615 58.2176 175.446 57.9806 175.213 57.7944C174.98 57.6082 174.663 57.5151 174.261 57.5151C173.994 57.5151 173.749 57.5723 173.525 57.6865C173.3 57.7965 173.108 57.9616 172.947 58.1816C172.786 58.4017 172.661 58.6704 172.572 58.9878C172.484 59.3052 172.439 59.6712 172.439 60.0859V60.3525C172.439 60.6784 172.484 60.9852 172.572 61.2729C172.666 61.5565 172.799 61.8062 172.972 62.022C173.15 62.2378 173.364 62.4071 173.613 62.5298C173.867 62.6525 174.155 62.7139 174.477 62.7139C174.891 62.7139 175.243 62.6292 175.53 62.46C175.818 62.2907 176.07 62.0643 176.286 61.7808L176.997 62.3457C176.849 62.57 176.66 62.7837 176.432 62.9868C176.203 63.1899 175.922 63.355 175.588 63.4819C175.258 63.6089 174.866 63.6724 174.413 63.6724ZM182.67 60.1875V60.0415C182.67 59.5464 182.742 59.0872 182.886 58.6641C183.03 58.2367 183.237 57.8664 183.508 57.5532C183.779 57.2358 184.107 56.9904 184.492 56.8169C184.877 56.6392 185.309 56.5503 185.787 56.5503C186.269 56.5503 186.703 56.6392 187.088 56.8169C187.478 56.9904 187.808 57.2358 188.079 57.5532C188.354 57.8664 188.563 58.2367 188.707 58.6641C188.851 59.0872 188.923 59.5464 188.923 60.0415V60.1875C188.923 60.6826 188.851 61.1418 188.707 61.5649C188.563 61.9881 188.354 62.3584 188.079 62.6758C187.808 62.9889 187.48 63.2344 187.095 63.4121C186.714 63.5856 186.282 63.6724 185.8 63.6724C185.317 63.6724 184.884 63.5856 184.498 63.4121C184.113 63.2344 183.783 62.9889 183.508 62.6758C183.237 62.3584 183.03 61.9881 182.886 61.5649C182.742 61.1418 182.67 60.6826 182.67 60.1875ZM183.845 60.0415V60.1875C183.845 60.5303 183.885 60.854 183.965 61.1587C184.046 61.4591 184.166 61.7257 184.327 61.9585C184.492 62.1912 184.697 62.3753 184.943 62.5107C185.188 62.6419 185.474 62.7075 185.8 62.7075C186.121 62.7075 186.403 62.6419 186.644 62.5107C186.889 62.3753 187.093 62.1912 187.253 61.9585C187.414 61.7257 187.535 61.4591 187.615 61.1587C187.7 60.854 187.742 60.5303 187.742 60.1875V60.0415C187.742 59.703 187.7 59.3835 187.615 59.083C187.535 58.7783 187.412 58.5096 187.247 58.2769C187.086 58.0399 186.883 57.8537 186.638 57.7183C186.396 57.5828 186.113 57.5151 185.787 57.5151C185.465 57.5151 185.182 57.5828 184.936 57.7183C184.695 57.8537 184.492 58.0399 184.327 58.2769C184.166 58.5096 184.046 58.7783 183.965 59.083C183.885 59.3835 183.845 59.703 183.845 60.0415ZM195.451 53.6875H196.416C196.416 54.1022 196.352 54.4323 196.225 54.6777C196.098 54.9189 195.925 55.1051 195.705 55.2363C195.489 55.3675 195.243 55.467 194.968 55.5347C194.697 55.6024 194.416 55.668 194.124 55.7314C193.76 55.8076 193.422 55.9282 193.108 56.0933C192.799 56.2541 192.533 56.4826 192.309 56.7788C192.089 57.075 191.926 57.4601 191.82 57.9341C191.718 58.408 191.691 58.9941 191.737 59.6924V60.2764H190.772V59.6924C190.772 58.9095 190.847 58.2261 190.995 57.6421C191.147 57.0581 191.361 56.5651 191.636 56.1631C191.911 55.7611 192.237 55.4416 192.613 55.2046C192.994 54.9676 193.413 54.8047 193.87 54.7158C194.2 54.6523 194.484 54.5846 194.721 54.5127C194.958 54.4365 195.138 54.335 195.26 54.208C195.387 54.0811 195.451 53.9076 195.451 53.6875ZM194.061 57.0708C194.509 57.0708 194.909 57.1491 195.26 57.3057C195.611 57.4622 195.91 57.6802 196.155 57.9595C196.401 58.2388 196.587 58.5688 196.714 58.9497C196.845 59.3263 196.911 59.7368 196.911 60.1812V60.3208C196.911 60.799 196.841 61.2433 196.701 61.6538C196.566 62.0601 196.365 62.4155 196.098 62.7202C195.836 63.0207 195.514 63.2555 195.133 63.4248C194.757 63.5941 194.327 63.6787 193.845 63.6787C193.362 63.6787 192.931 63.5941 192.55 63.4248C192.173 63.2555 191.852 63.0207 191.585 62.7202C191.318 62.4155 191.115 62.0601 190.976 61.6538C190.84 61.2433 190.772 60.799 190.772 60.3208V60.1812C190.772 60.0754 190.792 59.9717 190.83 59.8701C190.868 59.7686 190.914 59.6649 190.969 59.5591C191.028 59.4533 191.081 59.3411 191.128 59.2227C191.285 58.8418 191.498 58.4884 191.769 58.1626C192.044 57.8368 192.372 57.5744 192.753 57.3755C193.138 57.1724 193.574 57.0708 194.061 57.0708ZM193.832 58.0293C193.4 58.0293 193.045 58.1287 192.766 58.3276C192.491 58.5265 192.285 58.791 192.15 59.1211C192.014 59.4469 191.947 59.8003 191.947 60.1812V60.3208C191.947 60.6424 191.985 60.9471 192.061 61.2349C192.137 61.5226 192.251 61.7786 192.404 62.0029C192.56 62.223 192.757 62.3965 192.994 62.5234C193.235 62.6504 193.519 62.7139 193.845 62.7139C194.171 62.7139 194.452 62.6504 194.689 62.5234C194.926 62.3965 195.121 62.223 195.273 62.0029C195.425 61.7786 195.54 61.5226 195.616 61.2349C195.692 60.9471 195.73 60.6424 195.73 60.3208V60.1812C195.73 59.8934 195.692 59.6204 195.616 59.3623C195.54 59.1042 195.423 58.8757 195.267 58.6768C195.114 58.4779 194.917 58.3213 194.676 58.207C194.439 58.0885 194.158 58.0293 193.832 58.0293ZM201.204 56.6772V57.6421H198.189V56.6772H201.204ZM201.09 59.0386H203.153C203.707 59.0386 204.175 59.1359 204.556 59.3306C204.937 59.521 205.224 59.7855 205.419 60.124C205.618 60.4583 205.717 60.8392 205.717 61.2666C205.717 61.584 205.662 61.8823 205.552 62.1616C205.442 62.4367 205.277 62.6779 205.057 62.8853C204.841 63.0926 204.573 63.2555 204.251 63.374C203.934 63.4883 203.568 63.5454 203.153 63.5454H200.227V56.6772H201.407V62.5806H203.153C203.491 62.5806 203.76 62.5192 203.959 62.3965C204.162 62.2738 204.308 62.1151 204.397 61.9204C204.486 61.7257 204.53 61.5226 204.53 61.311C204.53 61.1037 204.486 60.9006 204.397 60.7017C204.308 60.5028 204.162 60.3377 203.959 60.2065C203.76 60.0711 203.491 60.0034 203.153 60.0034H201.09V59.0386ZM210.468 63.6724C209.99 63.6724 209.556 63.592 209.167 63.4312C208.782 63.2661 208.449 63.0355 208.17 62.7393C207.895 62.443 207.683 62.0918 207.535 61.6855C207.387 61.2793 207.313 60.835 207.313 60.3525V60.0859C207.313 59.5273 207.396 59.0301 207.561 58.5942C207.726 58.1541 207.95 57.7817 208.234 57.4771C208.517 57.1724 208.839 56.9417 209.198 56.7852C209.558 56.6286 209.931 56.5503 210.316 56.5503C210.807 56.5503 211.23 56.6349 211.585 56.8042C211.945 56.9735 212.239 57.2104 212.467 57.5151C212.696 57.8156 212.865 58.1711 212.975 58.5815C213.085 58.9878 213.14 59.4321 213.14 59.9146V60.4414H208.011V59.4829H211.966V59.394C211.949 59.0894 211.886 58.7931 211.776 58.5054C211.67 58.2176 211.501 57.9806 211.268 57.7944C211.035 57.6082 210.718 57.5151 210.316 57.5151C210.049 57.5151 209.804 57.5723 209.579 57.6865C209.355 57.7965 209.162 57.9616 209.002 58.1816C208.841 58.4017 208.716 58.6704 208.627 58.9878C208.538 59.3052 208.494 59.6712 208.494 60.0859V60.3525C208.494 60.6784 208.538 60.9852 208.627 61.2729C208.72 61.5565 208.854 61.8062 209.027 62.022C209.205 62.2378 209.418 62.4071 209.668 62.5298C209.922 62.6525 210.21 62.7139 210.531 62.7139C210.946 62.7139 211.297 62.6292 211.585 62.46C211.873 62.2907 212.125 62.0643 212.341 61.7808L213.051 62.3457C212.903 62.57 212.715 62.7837 212.487 62.9868C212.258 63.1899 211.977 63.355 211.642 63.4819C211.312 63.6089 210.921 63.6724 210.468 63.6724ZM216.399 56.6772H217.574L217.472 59.248C217.447 59.8997 217.373 60.4626 217.25 60.9365C217.127 61.4105 216.971 61.8146 216.78 62.1489C216.59 62.479 216.376 62.7562 216.139 62.9805C215.906 63.2048 215.665 63.3931 215.415 63.5454H214.831L214.863 62.5869L215.104 62.5806C215.244 62.4155 215.379 62.2463 215.511 62.0728C215.642 61.895 215.762 61.6855 215.872 61.4443C215.982 61.1989 216.073 60.9006 216.145 60.5493C216.221 60.1938 216.27 59.7601 216.291 59.248L216.399 56.6772ZM216.691 56.6772H220.824V63.5454H219.649V57.7627H216.691V56.6772ZM214.565 62.5806H221.706V65.5703H220.532V63.5454H215.739V65.5703H214.558L214.565 62.5806ZM224.927 61.6855L228.094 56.6772H229.275V63.5454H228.094V58.5371L224.927 63.5454H223.759V56.6772H224.927V61.6855ZM236.469 59.6543V60.6064H232.838V59.6543H236.469ZM233.086 56.6772V63.5454H231.912V56.6772H233.086ZM237.421 56.6772V63.5454H236.241V56.6772H237.421ZM242.813 63.6724C242.335 63.6724 241.901 63.592 241.512 63.4312C241.127 63.2661 240.795 63.0355 240.515 62.7393C240.24 62.443 240.029 62.0918 239.88 61.6855C239.732 61.2793 239.658 60.835 239.658 60.3525V60.0859C239.658 59.5273 239.741 59.0301 239.906 58.5942C240.071 58.1541 240.295 57.7817 240.579 57.4771C240.862 57.1724 241.184 56.9417 241.544 56.7852C241.903 56.6286 242.276 56.5503 242.661 56.5503C243.152 56.5503 243.575 56.6349 243.93 56.8042C244.29 56.9735 244.584 57.2104 244.813 57.5151C245.041 57.8156 245.21 58.1711 245.32 58.5815C245.43 58.9878 245.485 59.4321 245.485 59.9146V60.4414H240.357V59.4829H244.311V59.394C244.294 59.0894 244.231 58.7931 244.121 58.5054C244.015 58.2176 243.846 57.9806 243.613 57.7944C243.38 57.6082 243.063 57.5151 242.661 57.5151C242.394 57.5151 242.149 57.5723 241.924 57.6865C241.7 57.7965 241.508 57.9616 241.347 58.1816C241.186 58.4017 241.061 58.6704 240.972 58.9878C240.883 59.3052 240.839 59.6712 240.839 60.0859V60.3525C240.839 60.6784 240.883 60.9852 240.972 61.2729C241.065 61.5565 241.199 61.8062 241.372 62.022C241.55 62.2378 241.764 62.4071 242.013 62.5298C242.267 62.6525 242.555 62.7139 242.877 62.7139C243.291 62.7139 243.643 62.6292 243.93 62.46C244.218 62.2907 244.47 62.0643 244.686 61.7808L245.397 62.3457C245.248 62.57 245.06 62.7837 244.832 62.9868C244.603 63.1899 244.322 63.355 243.987 63.4819C243.657 63.6089 243.266 63.6724 242.813 63.6724ZM252.166 59.6543V60.6064H248.535V59.6543H252.166ZM248.782 56.6772V63.5454H247.608V56.6772H248.782ZM253.118 56.6772V63.5454H251.937V56.6772H253.118ZM256.929 61.6855L260.096 56.6772H261.277V63.5454H260.096V58.5371L256.929 63.5454H255.761V56.6772H256.929V61.6855ZM266.663 63.6724C266.184 63.6724 265.751 63.592 265.361 63.4312C264.976 63.2661 264.644 63.0355 264.365 62.7393C264.09 62.443 263.878 62.0918 263.73 61.6855C263.582 61.2793 263.508 60.835 263.508 60.3525V60.0859C263.508 59.5273 263.59 59.0301 263.755 58.5942C263.92 58.1541 264.145 57.7817 264.428 57.4771C264.712 57.1724 265.033 56.9417 265.393 56.7852C265.753 56.6286 266.125 56.5503 266.51 56.5503C267.001 56.5503 267.424 56.6349 267.78 56.8042C268.139 56.9735 268.434 57.2104 268.662 57.5151C268.891 57.8156 269.06 58.1711 269.17 58.5815C269.28 58.9878 269.335 59.4321 269.335 59.9146V60.4414H264.206V59.4829H268.161V59.394C268.144 59.0894 268.08 58.7931 267.97 58.5054C267.864 58.2176 267.695 57.9806 267.462 57.7944C267.23 57.6082 266.912 57.5151 266.51 57.5151C266.244 57.5151 265.998 57.5723 265.774 57.6865C265.55 57.7965 265.357 57.9616 265.196 58.1816C265.035 58.4017 264.911 58.6704 264.822 58.9878C264.733 59.3052 264.688 59.6712 264.688 60.0859V60.3525C264.688 60.6784 264.733 60.9852 264.822 61.2729C264.915 61.5565 265.048 61.8062 265.222 62.022C265.399 62.2378 265.613 62.4071 265.863 62.5298C266.117 62.6525 266.404 62.7139 266.726 62.7139C267.141 62.7139 267.492 62.6292 267.78 62.46C268.067 62.2907 268.319 62.0643 268.535 61.7808L269.246 62.3457C269.098 62.57 268.91 62.7837 268.681 62.9868C268.453 63.1899 268.171 63.355 267.837 63.4819C267.507 63.6089 267.115 63.6724 266.663 63.6724Z" fill="#2B323C"/>
</svg>
